<svg width="16" height="21" viewBox="0 0 16 21" fill="none" xmlns="http://www.w3.org/2000/svg">
<circle cx="8" cy="10" r="8" fill="#323E48"/>
<path d="M8.00066 15.084C7.74866 15.084 7.53866 15.014 7.37066 14.874C7.21199 14.7247 7.13266 14.5147 7.13266 14.244V8.84C7.13266 8.56933 7.21199 8.364 7.37066 8.224C7.53866 8.084 7.74866 8.014 8.00066 8.014C8.25266 8.014 8.46266 8.084 8.63066 8.224C8.79866 8.364 8.88266 8.56933 8.88266 8.84V14.244C8.88266 14.5147 8.79866 14.7247 8.63066 14.874C8.46266 15.014 8.25266 15.084 8.00066 15.084ZM8.00066 6.768C7.68332 6.768 7.43132 6.684 7.24466 6.516C7.05799 6.33867 6.96466 6.11 6.96466 5.83C6.96466 5.55 7.05799 5.326 7.24466 5.158C7.43132 4.99 7.68332 4.906 8.00066 4.906C8.30866 4.906 8.55599 4.99 8.74266 5.158C8.93866 5.326 9.03666 5.55 9.03666 5.83C9.03666 6.11 8.94332 6.33867 8.75666 6.516C8.56999 6.684 8.31799 6.768 8.00066 6.768Z" fill="white"/>
</svg>
